<mxfile host="app.diagrams.net" modified="2024-01-07T13:49:26.004Z" agent="Mozilla/5.0 (X11; Linux x86_64; rv:121.0) Gecko/20100101 Firefox/121.0" etag="qxSI9UsZW2mbzvdY86s5" version="22.1.17" type="device">
  <diagram name="Page-1" id="-zsq0LV_eUAgKs3GXp5K">
    <mxGraphModel dx="1434" dy="762" grid="1" gridSize="10" guides="1" tooltips="1" connect="1" arrows="1" fold="1" page="1" pageScale="1" pageWidth="827" pageHeight="1169" math="0" shadow="0">
      <root>
        <mxCell id="0" />
        <mxCell id="1" parent="0" />
        <mxCell id="7VTxH0GLKJcpPCkZ8lJP-10" style="edgeStyle=orthogonalEdgeStyle;rounded=0;orthogonalLoop=1;jettySize=auto;html=1;entryX=0.5;entryY=0;entryDx=0;entryDy=0;labelBackgroundColor=none;strokeColor=#E07A5F;fontColor=default;" parent="1" source="7VTxH0GLKJcpPCkZ8lJP-1" target="7VTxH0GLKJcpPCkZ8lJP-2" edge="1">
          <mxGeometry relative="1" as="geometry" />
        </mxCell>
        <mxCell id="7VTxH0GLKJcpPCkZ8lJP-1" value="Start" style="ellipse;whiteSpace=wrap;html=1;aspect=fixed;labelBackgroundColor=none;fillColor=#dae8fc;strokeColor=#6c8ebf;" parent="1" vertex="1">
          <mxGeometry x="389" y="10" width="50" height="50" as="geometry" />
        </mxCell>
        <mxCell id="7VTxH0GLKJcpPCkZ8lJP-4" style="edgeStyle=orthogonalEdgeStyle;rounded=0;orthogonalLoop=1;jettySize=auto;html=1;entryX=1;entryY=0.5;entryDx=0;entryDy=0;labelBackgroundColor=none;strokeColor=#E07A5F;fontColor=default;" parent="1" source="7VTxH0GLKJcpPCkZ8lJP-2" target="7VTxH0GLKJcpPCkZ8lJP-13" edge="1">
          <mxGeometry relative="1" as="geometry">
            <mxPoint x="290" y="115" as="targetPoint" />
          </mxGeometry>
        </mxCell>
        <mxCell id="7VTxH0GLKJcpPCkZ8lJP-12" value="Encrypt" style="edgeLabel;html=1;align=center;verticalAlign=middle;resizable=0;points=[];fontColor=#393C56;" parent="7VTxH0GLKJcpPCkZ8lJP-4" vertex="1" connectable="0">
          <mxGeometry x="-0.5417" y="-2" relative="1" as="geometry">
            <mxPoint x="-14" y="2" as="offset" />
          </mxGeometry>
        </mxCell>
        <mxCell id="7VTxH0GLKJcpPCkZ8lJP-7" style="edgeStyle=orthogonalEdgeStyle;rounded=0;orthogonalLoop=1;jettySize=auto;html=1;entryX=0;entryY=0.5;entryDx=0;entryDy=0;labelBackgroundColor=none;strokeColor=#E07A5F;fontColor=default;" parent="1" source="7VTxH0GLKJcpPCkZ8lJP-2" target="7VTxH0GLKJcpPCkZ8lJP-71" edge="1">
          <mxGeometry relative="1" as="geometry">
            <mxPoint x="540" y="115" as="targetPoint" />
          </mxGeometry>
        </mxCell>
        <mxCell id="7VTxH0GLKJcpPCkZ8lJP-11" value="&lt;div&gt;Decrypt&lt;/div&gt;" style="edgeLabel;html=1;align=center;verticalAlign=middle;resizable=0;points=[];fontColor=#393C56;" parent="7VTxH0GLKJcpPCkZ8lJP-7" vertex="1" connectable="0">
          <mxGeometry x="-0.449" y="3" relative="1" as="geometry">
            <mxPoint x="11" y="3" as="offset" />
          </mxGeometry>
        </mxCell>
        <mxCell id="7VTxH0GLKJcpPCkZ8lJP-42" style="edgeStyle=orthogonalEdgeStyle;rounded=0;orthogonalLoop=1;jettySize=auto;html=1;entryX=0.5;entryY=0;entryDx=0;entryDy=0;strokeColor=#E07A5F;fontColor=#393C56;fillColor=#F2CC8F;" parent="1" source="7VTxH0GLKJcpPCkZ8lJP-2" target="7VTxH0GLKJcpPCkZ8lJP-44" edge="1">
          <mxGeometry relative="1" as="geometry">
            <mxPoint x="414" y="180" as="targetPoint" />
          </mxGeometry>
        </mxCell>
        <mxCell id="7VTxH0GLKJcpPCkZ8lJP-43" value="Default" style="edgeLabel;html=1;align=center;verticalAlign=middle;resizable=0;points=[];fontColor=#393C56;" parent="7VTxH0GLKJcpPCkZ8lJP-42" vertex="1" connectable="0">
          <mxGeometry x="-0.45" y="-1" relative="1" as="geometry">
            <mxPoint x="1" as="offset" />
          </mxGeometry>
        </mxCell>
        <mxCell id="7VTxH0GLKJcpPCkZ8lJP-2" value="action" style="rhombus;whiteSpace=wrap;html=1;fillColor=#fff2cc;strokeColor=#d6b656;labelBackgroundColor=none;" parent="1" vertex="1">
          <mxGeometry x="386" y="90" width="56" height="50" as="geometry" />
        </mxCell>
        <mxCell id="7VTxH0GLKJcpPCkZ8lJP-18" style="edgeStyle=orthogonalEdgeStyle;rounded=0;orthogonalLoop=1;jettySize=auto;html=1;entryX=0.5;entryY=0;entryDx=0;entryDy=0;strokeColor=#E07A5F;fontColor=#393C56;fillColor=#F2CC8F;" parent="1" source="7VTxH0GLKJcpPCkZ8lJP-13" target="7VTxH0GLKJcpPCkZ8lJP-17" edge="1">
          <mxGeometry relative="1" as="geometry" />
        </mxCell>
        <mxCell id="7VTxH0GLKJcpPCkZ8lJP-40" value="YES" style="edgeLabel;html=1;align=center;verticalAlign=middle;resizable=0;points=[];fontColor=#393C56;" parent="7VTxH0GLKJcpPCkZ8lJP-18" vertex="1" connectable="0">
          <mxGeometry x="-0.6" y="-2" relative="1" as="geometry">
            <mxPoint x="2" as="offset" />
          </mxGeometry>
        </mxCell>
        <mxCell id="7VTxH0GLKJcpPCkZ8lJP-23" style="edgeStyle=orthogonalEdgeStyle;rounded=0;orthogonalLoop=1;jettySize=auto;html=1;entryX=1;entryY=0.5;entryDx=0;entryDy=0;strokeColor=#E07A5F;fontColor=#393C56;fillColor=#F2CC8F;" parent="1" source="7VTxH0GLKJcpPCkZ8lJP-13" target="7VTxH0GLKJcpPCkZ8lJP-22" edge="1">
          <mxGeometry relative="1" as="geometry" />
        </mxCell>
        <mxCell id="7VTxH0GLKJcpPCkZ8lJP-25" value="NO" style="edgeLabel;html=1;align=center;verticalAlign=middle;resizable=0;points=[];fontColor=#393C56;" parent="7VTxH0GLKJcpPCkZ8lJP-23" vertex="1" connectable="0">
          <mxGeometry x="-0.45" y="-1" relative="1" as="geometry">
            <mxPoint as="offset" />
          </mxGeometry>
        </mxCell>
        <mxCell id="7VTxH0GLKJcpPCkZ8lJP-13" value="&lt;div&gt;path&lt;/div&gt;&lt;div&gt;to encrypt provided?&lt;br&gt;&lt;/div&gt;" style="rhombus;whiteSpace=wrap;html=1;strokeColor=#d6b656;fillColor=#fff2cc;" parent="1" vertex="1">
          <mxGeometry x="210" y="72.5" width="90" height="85" as="geometry" />
        </mxCell>
        <mxCell id="7VTxH0GLKJcpPCkZ8lJP-29" style="edgeStyle=orthogonalEdgeStyle;rounded=0;orthogonalLoop=1;jettySize=auto;html=1;entryX=1;entryY=0.5;entryDx=0;entryDy=0;strokeColor=#E07A5F;fontColor=#393C56;fillColor=#F2CC8F;" parent="1" source="7VTxH0GLKJcpPCkZ8lJP-17" target="7VTxH0GLKJcpPCkZ8lJP-28" edge="1">
          <mxGeometry relative="1" as="geometry" />
        </mxCell>
        <mxCell id="7VTxH0GLKJcpPCkZ8lJP-33" value="&lt;div&gt;NO&lt;/div&gt;" style="edgeLabel;html=1;align=center;verticalAlign=middle;resizable=0;points=[];fontColor=#393C56;" parent="7VTxH0GLKJcpPCkZ8lJP-29" vertex="1" connectable="0">
          <mxGeometry x="-0.2" y="2" relative="1" as="geometry">
            <mxPoint as="offset" />
          </mxGeometry>
        </mxCell>
        <mxCell id="7VTxH0GLKJcpPCkZ8lJP-36" style="edgeStyle=orthogonalEdgeStyle;rounded=0;orthogonalLoop=1;jettySize=auto;html=1;entryX=0.5;entryY=0;entryDx=0;entryDy=0;strokeColor=#E07A5F;fontColor=#393C56;fillColor=#F2CC8F;" parent="1" source="7VTxH0GLKJcpPCkZ8lJP-17" target="7VTxH0GLKJcpPCkZ8lJP-50" edge="1">
          <mxGeometry relative="1" as="geometry">
            <mxPoint x="255" y="340" as="targetPoint" />
          </mxGeometry>
        </mxCell>
        <mxCell id="7VTxH0GLKJcpPCkZ8lJP-39" value="YES" style="edgeLabel;html=1;align=center;verticalAlign=middle;resizable=0;points=[];fontColor=#393C56;" parent="7VTxH0GLKJcpPCkZ8lJP-36" vertex="1" connectable="0">
          <mxGeometry x="-0.6364" y="-3" relative="1" as="geometry">
            <mxPoint x="3" as="offset" />
          </mxGeometry>
        </mxCell>
        <mxCell id="7VTxH0GLKJcpPCkZ8lJP-17" value="Key provided?" style="rhombus;whiteSpace=wrap;html=1;strokeColor=#d6b656;fillColor=#fff2cc;" parent="1" vertex="1">
          <mxGeometry x="210" y="200" width="90" height="85" as="geometry" />
        </mxCell>
        <mxCell id="7VTxH0GLKJcpPCkZ8lJP-20" value="End" style="ellipse;whiteSpace=wrap;html=1;aspect=fixed;labelBackgroundColor=none;fillColor=#dae8fc;strokeColor=#6c8ebf;" parent="1" vertex="1">
          <mxGeometry x="20" y="90" width="50" height="50" as="geometry" />
        </mxCell>
        <mxCell id="7VTxH0GLKJcpPCkZ8lJP-26" style="edgeStyle=orthogonalEdgeStyle;rounded=0;orthogonalLoop=1;jettySize=auto;html=1;entryX=1;entryY=0.5;entryDx=0;entryDy=0;strokeColor=#E07A5F;fontColor=#393C56;fillColor=#F2CC8F;" parent="1" source="7VTxH0GLKJcpPCkZ8lJP-22" target="7VTxH0GLKJcpPCkZ8lJP-20" edge="1">
          <mxGeometry relative="1" as="geometry" />
        </mxCell>
        <mxCell id="7VTxH0GLKJcpPCkZ8lJP-22" value="error" style="rounded=0;whiteSpace=wrap;html=1;strokeColor=#b85450;fillColor=#f8cecc;" parent="1" vertex="1">
          <mxGeometry x="100" y="100" width="70" height="30" as="geometry" />
        </mxCell>
        <mxCell id="7VTxH0GLKJcpPCkZ8lJP-38" style="edgeStyle=orthogonalEdgeStyle;rounded=0;orthogonalLoop=1;jettySize=auto;html=1;exitX=0.5;exitY=1;exitDx=0;exitDy=0;entryX=0.5;entryY=0;entryDx=0;entryDy=0;strokeColor=#E07A5F;fontColor=#393C56;fillColor=#F2CC8F;" parent="1" source="7VTxH0GLKJcpPCkZ8lJP-28" target="7VTxH0GLKJcpPCkZ8lJP-50" edge="1">
          <mxGeometry relative="1" as="geometry">
            <mxPoint x="135" y="285" as="targetPoint" />
            <Array as="points">
              <mxPoint x="135" y="330" />
              <mxPoint x="255" y="330" />
            </Array>
          </mxGeometry>
        </mxCell>
        <mxCell id="7VTxH0GLKJcpPCkZ8lJP-28" value="Generate new key" style="rounded=0;whiteSpace=wrap;html=1;strokeColor=#82b366;fillColor=#d5e8d4;" parent="1" vertex="1">
          <mxGeometry x="100" y="227.5" width="70" height="30" as="geometry" />
        </mxCell>
        <mxCell id="7VTxH0GLKJcpPCkZ8lJP-47" style="edgeStyle=orthogonalEdgeStyle;rounded=0;orthogonalLoop=1;jettySize=auto;html=1;exitX=0.5;exitY=1;exitDx=0;exitDy=0;entryX=0.5;entryY=0;entryDx=0;entryDy=0;strokeColor=#E07A5F;fontColor=#393C56;fillColor=#F2CC8F;" parent="1" source="7VTxH0GLKJcpPCkZ8lJP-44" target="7VTxH0GLKJcpPCkZ8lJP-46" edge="1">
          <mxGeometry relative="1" as="geometry" />
        </mxCell>
        <mxCell id="7VTxH0GLKJcpPCkZ8lJP-44" value="error" style="rounded=0;whiteSpace=wrap;html=1;strokeColor=#b85450;fillColor=#f8cecc;" parent="1" vertex="1">
          <mxGeometry x="379" y="180" width="70" height="30" as="geometry" />
        </mxCell>
        <mxCell id="7VTxH0GLKJcpPCkZ8lJP-46" value="End" style="ellipse;whiteSpace=wrap;html=1;aspect=fixed;labelBackgroundColor=none;fillColor=#dae8fc;strokeColor=#6c8ebf;" parent="1" vertex="1">
          <mxGeometry x="389" y="227.5" width="50" height="50" as="geometry" />
        </mxCell>
        <mxCell id="7VTxH0GLKJcpPCkZ8lJP-53" value="" style="edgeStyle=orthogonalEdgeStyle;rounded=0;orthogonalLoop=1;jettySize=auto;html=1;strokeColor=#E07A5F;fontColor=#393C56;fillColor=#F2CC8F;" parent="1" source="7VTxH0GLKJcpPCkZ8lJP-50" target="7VTxH0GLKJcpPCkZ8lJP-52" edge="1">
          <mxGeometry relative="1" as="geometry" />
        </mxCell>
        <mxCell id="7VTxH0GLKJcpPCkZ8lJP-50" value="walk directory recursively" style="rounded=0;whiteSpace=wrap;html=1;strokeColor=#82b366;fillColor=#d5e8d4;" parent="1" vertex="1">
          <mxGeometry x="200" y="360" width="110" height="30" as="geometry" />
        </mxCell>
        <mxCell id="xogNGDqPY7WKVePX1rSe-1" style="edgeStyle=orthogonalEdgeStyle;rounded=0;orthogonalLoop=1;jettySize=auto;html=1;entryX=0.5;entryY=0;entryDx=0;entryDy=0;strokeColor=#E07A5F;" parent="1" source="7VTxH0GLKJcpPCkZ8lJP-52" target="7VTxH0GLKJcpPCkZ8lJP-66" edge="1">
          <mxGeometry relative="1" as="geometry" />
        </mxCell>
        <mxCell id="7VTxH0GLKJcpPCkZ8lJP-52" value="put found files in a slice" style="rounded=0;whiteSpace=wrap;html=1;strokeColor=#82b366;fillColor=#d5e8d4;" parent="1" vertex="1">
          <mxGeometry x="200" y="420" width="110" height="30" as="geometry" />
        </mxCell>
        <mxCell id="7VTxH0GLKJcpPCkZ8lJP-58" style="edgeStyle=orthogonalEdgeStyle;rounded=0;orthogonalLoop=1;jettySize=auto;html=1;entryX=1;entryY=0.5;entryDx=0;entryDy=0;strokeColor=#E07A5F;fontColor=#393C56;fillColor=#F2CC8F;" parent="1" source="7VTxH0GLKJcpPCkZ8lJP-54" target="7VTxH0GLKJcpPCkZ8lJP-56" edge="1">
          <mxGeometry relative="1" as="geometry" />
        </mxCell>
        <mxCell id="7VTxH0GLKJcpPCkZ8lJP-59" value="YES" style="edgeLabel;html=1;align=center;verticalAlign=middle;resizable=0;points=[];fontColor=#393C56;" parent="7VTxH0GLKJcpPCkZ8lJP-58" vertex="1" connectable="0">
          <mxGeometry x="-0.55" y="-4" relative="1" as="geometry">
            <mxPoint x="-11" y="4" as="offset" />
          </mxGeometry>
        </mxCell>
        <mxCell id="xogNGDqPY7WKVePX1rSe-3" style="edgeStyle=orthogonalEdgeStyle;rounded=0;orthogonalLoop=1;jettySize=auto;html=1;entryX=0.5;entryY=0;entryDx=0;entryDy=0;strokeColor=#E07A5F;" parent="1" source="7VTxH0GLKJcpPCkZ8lJP-54" target="7VTxH0GLKJcpPCkZ8lJP-77" edge="1">
          <mxGeometry relative="1" as="geometry" />
        </mxCell>
        <mxCell id="xogNGDqPY7WKVePX1rSe-4" value="NO" style="edgeLabel;html=1;align=center;verticalAlign=middle;resizable=0;points=[];" parent="xogNGDqPY7WKVePX1rSe-3" vertex="1" connectable="0">
          <mxGeometry x="-0.58" y="-1" relative="1" as="geometry">
            <mxPoint x="1" y="-11" as="offset" />
          </mxGeometry>
        </mxCell>
        <mxCell id="7VTxH0GLKJcpPCkZ8lJP-54" value="rename files?" style="rhombus;whiteSpace=wrap;html=1;strokeColor=#d6b656;fillColor=#fff2cc;" parent="1" vertex="1">
          <mxGeometry x="210" y="640" width="90" height="70" as="geometry" />
        </mxCell>
        <mxCell id="7VTxH0GLKJcpPCkZ8lJP-61" style="edgeStyle=orthogonalEdgeStyle;rounded=0;orthogonalLoop=1;jettySize=auto;html=1;entryX=0.5;entryY=0;entryDx=0;entryDy=0;strokeColor=#E07A5F;fontColor=#393C56;fillColor=#F2CC8F;" parent="1" source="7VTxH0GLKJcpPCkZ8lJP-56" target="7VTxH0GLKJcpPCkZ8lJP-57" edge="1">
          <mxGeometry relative="1" as="geometry" />
        </mxCell>
        <mxCell id="7VTxH0GLKJcpPCkZ8lJP-56" value="encrypt file names" style="rounded=0;whiteSpace=wrap;html=1;strokeColor=#82b366;fillColor=#d5e8d4;" parent="1" vertex="1">
          <mxGeometry x="50" y="660" width="100" height="30" as="geometry" />
        </mxCell>
        <mxCell id="7VTxH0GLKJcpPCkZ8lJP-65" style="edgeStyle=orthogonalEdgeStyle;rounded=0;orthogonalLoop=1;jettySize=auto;html=1;exitX=0.5;exitY=1;exitDx=0;exitDy=0;entryX=0.5;entryY=0;entryDx=0;entryDy=0;strokeColor=#E07A5F;fontColor=#393C56;fillColor=#F2CC8F;" parent="1" source="7VTxH0GLKJcpPCkZ8lJP-57" target="7VTxH0GLKJcpPCkZ8lJP-62" edge="1">
          <mxGeometry relative="1" as="geometry" />
        </mxCell>
        <mxCell id="7VTxH0GLKJcpPCkZ8lJP-57" value="rename files to &quot;temp{counter}&quot;" style="rounded=0;whiteSpace=wrap;html=1;strokeColor=#82b366;fillColor=#d5e8d4;" parent="1" vertex="1">
          <mxGeometry x="52.5" y="714.5" width="95" height="30" as="geometry" />
        </mxCell>
        <mxCell id="xogNGDqPY7WKVePX1rSe-5" style="edgeStyle=orthogonalEdgeStyle;rounded=0;orthogonalLoop=1;jettySize=auto;html=1;entryX=0.5;entryY=0;entryDx=0;entryDy=0;strokeColor=#E07A5F;" parent="1" source="7VTxH0GLKJcpPCkZ8lJP-62" target="7VTxH0GLKJcpPCkZ8lJP-77" edge="1">
          <mxGeometry relative="1" as="geometry" />
        </mxCell>
        <mxCell id="7VTxH0GLKJcpPCkZ8lJP-62" value="&lt;div&gt;write to cfg file&lt;/div&gt;&lt;div&gt;&lt;font style=&quot;font-size: 11px;&quot;&gt;&quot;temp{counter}&quot; : {encrypted name}&lt;/font&gt;&lt;br&gt;&lt;/div&gt;" style="rounded=0;whiteSpace=wrap;html=1;strokeColor=#82b366;fillColor=#d5e8d4;" parent="1" vertex="1">
          <mxGeometry x="10" y="770" width="180" height="30" as="geometry" />
        </mxCell>
        <mxCell id="DnR0pofImu-BrbDnWXPT-3" style="edgeStyle=orthogonalEdgeStyle;rounded=0;orthogonalLoop=1;jettySize=auto;html=1;entryX=0.5;entryY=0;entryDx=0;entryDy=0;strokeColor=#E07A5F;" edge="1" parent="1" source="7VTxH0GLKJcpPCkZ8lJP-66" target="DnR0pofImu-BrbDnWXPT-2">
          <mxGeometry relative="1" as="geometry" />
        </mxCell>
        <mxCell id="7VTxH0GLKJcpPCkZ8lJP-66" value="encrypt files" style="rounded=0;whiteSpace=wrap;html=1;strokeColor=#82b366;fillColor=#d5e8d4;" parent="1" vertex="1">
          <mxGeometry x="200" y="480" width="110" height="30" as="geometry" />
        </mxCell>
        <mxCell id="7VTxH0GLKJcpPCkZ8lJP-73" style="edgeStyle=orthogonalEdgeStyle;rounded=0;orthogonalLoop=1;jettySize=auto;html=1;entryX=0;entryY=0.5;entryDx=0;entryDy=0;strokeColor=#E07A5F;fontColor=#393C56;fillColor=#F2CC8F;" parent="1" source="7VTxH0GLKJcpPCkZ8lJP-71" target="7VTxH0GLKJcpPCkZ8lJP-72" edge="1">
          <mxGeometry relative="1" as="geometry" />
        </mxCell>
        <mxCell id="7VTxH0GLKJcpPCkZ8lJP-74" value="NO" style="edgeLabel;html=1;align=center;verticalAlign=middle;resizable=0;points=[];fontColor=#393C56;" parent="7VTxH0GLKJcpPCkZ8lJP-73" vertex="1" connectable="0">
          <mxGeometry x="0.2" relative="1" as="geometry">
            <mxPoint x="-14" as="offset" />
          </mxGeometry>
        </mxCell>
        <mxCell id="7VTxH0GLKJcpPCkZ8lJP-80" style="edgeStyle=orthogonalEdgeStyle;rounded=0;orthogonalLoop=1;jettySize=auto;html=1;entryX=0.5;entryY=0;entryDx=0;entryDy=0;strokeColor=#E07A5F;fontColor=#393C56;fillColor=#F2CC8F;" parent="1" source="7VTxH0GLKJcpPCkZ8lJP-71" target="7VTxH0GLKJcpPCkZ8lJP-79" edge="1">
          <mxGeometry relative="1" as="geometry" />
        </mxCell>
        <mxCell id="7VTxH0GLKJcpPCkZ8lJP-86" value="YES" style="edgeLabel;html=1;align=center;verticalAlign=middle;resizable=0;points=[];fontColor=#393C56;" parent="7VTxH0GLKJcpPCkZ8lJP-80" vertex="1" connectable="0">
          <mxGeometry x="-0.6222" relative="1" as="geometry">
            <mxPoint as="offset" />
          </mxGeometry>
        </mxCell>
        <mxCell id="7VTxH0GLKJcpPCkZ8lJP-71" value="&lt;div&gt;path&lt;/div&gt;&lt;div&gt;to decrypt provided?&lt;br&gt;&lt;/div&gt;" style="rhombus;whiteSpace=wrap;html=1;strokeColor=#d6b656;fillColor=#fff2cc;" parent="1" vertex="1">
          <mxGeometry x="540" y="72.5" width="90" height="85" as="geometry" />
        </mxCell>
        <mxCell id="7VTxH0GLKJcpPCkZ8lJP-76" style="edgeStyle=orthogonalEdgeStyle;rounded=0;orthogonalLoop=1;jettySize=auto;html=1;entryX=0;entryY=0.5;entryDx=0;entryDy=0;strokeColor=#E07A5F;fontColor=#393C56;fillColor=#F2CC8F;" parent="1" source="7VTxH0GLKJcpPCkZ8lJP-72" target="7VTxH0GLKJcpPCkZ8lJP-75" edge="1">
          <mxGeometry relative="1" as="geometry" />
        </mxCell>
        <mxCell id="7VTxH0GLKJcpPCkZ8lJP-72" value="error" style="rounded=0;whiteSpace=wrap;html=1;strokeColor=#b85450;fillColor=#f8cecc;" parent="1" vertex="1">
          <mxGeometry x="670" y="100" width="70" height="30" as="geometry" />
        </mxCell>
        <mxCell id="7VTxH0GLKJcpPCkZ8lJP-75" value="End" style="ellipse;whiteSpace=wrap;html=1;aspect=fixed;labelBackgroundColor=none;fillColor=#dae8fc;strokeColor=#6c8ebf;" parent="1" vertex="1">
          <mxGeometry x="770" y="90" width="50" height="50" as="geometry" />
        </mxCell>
        <mxCell id="7VTxH0GLKJcpPCkZ8lJP-77" value="End" style="ellipse;whiteSpace=wrap;html=1;aspect=fixed;labelBackgroundColor=none;fillColor=#dae8fc;strokeColor=#6c8ebf;" parent="1" vertex="1">
          <mxGeometry x="230" y="810" width="50" height="50" as="geometry" />
        </mxCell>
        <mxCell id="7VTxH0GLKJcpPCkZ8lJP-84" style="edgeStyle=orthogonalEdgeStyle;rounded=0;orthogonalLoop=1;jettySize=auto;html=1;entryX=0;entryY=0.5;entryDx=0;entryDy=0;strokeColor=#E07A5F;fontColor=#393C56;fillColor=#F2CC8F;" parent="1" source="7VTxH0GLKJcpPCkZ8lJP-79" target="7VTxH0GLKJcpPCkZ8lJP-82" edge="1">
          <mxGeometry relative="1" as="geometry" />
        </mxCell>
        <mxCell id="7VTxH0GLKJcpPCkZ8lJP-85" value="&lt;div&gt;NO&lt;/div&gt;" style="edgeLabel;html=1;align=center;verticalAlign=middle;resizable=0;points=[];fontColor=#393C56;" parent="7VTxH0GLKJcpPCkZ8lJP-84" vertex="1" connectable="0">
          <mxGeometry x="-0.6" y="-3" relative="1" as="geometry">
            <mxPoint as="offset" />
          </mxGeometry>
        </mxCell>
        <mxCell id="7VTxH0GLKJcpPCkZ8lJP-88" style="edgeStyle=orthogonalEdgeStyle;rounded=0;orthogonalLoop=1;jettySize=auto;html=1;entryX=0.5;entryY=0;entryDx=0;entryDy=0;strokeColor=#E07A5F;fontColor=#393C56;fillColor=#F2CC8F;" parent="1" source="7VTxH0GLKJcpPCkZ8lJP-79" target="7VTxH0GLKJcpPCkZ8lJP-89" edge="1">
          <mxGeometry relative="1" as="geometry">
            <mxPoint x="585" y="300" as="targetPoint" />
          </mxGeometry>
        </mxCell>
        <mxCell id="7VTxH0GLKJcpPCkZ8lJP-93" value="YES" style="edgeLabel;html=1;align=center;verticalAlign=middle;resizable=0;points=[];fontColor=#393C56;" parent="7VTxH0GLKJcpPCkZ8lJP-88" vertex="1" connectable="0">
          <mxGeometry x="-0.6842" y="-2" relative="1" as="geometry">
            <mxPoint x="2" as="offset" />
          </mxGeometry>
        </mxCell>
        <mxCell id="7VTxH0GLKJcpPCkZ8lJP-79" value="cfg file provided?" style="rhombus;whiteSpace=wrap;html=1;strokeColor=#d6b656;fillColor=#fff2cc;" parent="1" vertex="1">
          <mxGeometry x="540" y="192.5" width="90" height="85" as="geometry" />
        </mxCell>
        <mxCell id="7VTxH0GLKJcpPCkZ8lJP-81" style="edgeStyle=orthogonalEdgeStyle;rounded=0;orthogonalLoop=1;jettySize=auto;html=1;entryX=0;entryY=0.5;entryDx=0;entryDy=0;strokeColor=#E07A5F;fontColor=#393C56;fillColor=#F2CC8F;" parent="1" source="7VTxH0GLKJcpPCkZ8lJP-82" target="7VTxH0GLKJcpPCkZ8lJP-83" edge="1">
          <mxGeometry relative="1" as="geometry" />
        </mxCell>
        <mxCell id="7VTxH0GLKJcpPCkZ8lJP-82" value="error" style="rounded=0;whiteSpace=wrap;html=1;strokeColor=#b85450;fillColor=#f8cecc;" parent="1" vertex="1">
          <mxGeometry x="670" y="220" width="70" height="30" as="geometry" />
        </mxCell>
        <mxCell id="7VTxH0GLKJcpPCkZ8lJP-83" value="End" style="ellipse;whiteSpace=wrap;html=1;aspect=fixed;labelBackgroundColor=none;fillColor=#dae8fc;strokeColor=#6c8ebf;" parent="1" vertex="1">
          <mxGeometry x="770" y="210" width="50" height="50" as="geometry" />
        </mxCell>
        <mxCell id="7VTxH0GLKJcpPCkZ8lJP-95" value="" style="edgeStyle=orthogonalEdgeStyle;rounded=0;orthogonalLoop=1;jettySize=auto;html=1;strokeColor=#E07A5F;fontColor=#393C56;fillColor=#F2CC8F;entryX=0.5;entryY=0;entryDx=0;entryDy=0;" parent="1" source="7VTxH0GLKJcpPCkZ8lJP-89" target="7VTxH0GLKJcpPCkZ8lJP-90" edge="1">
          <mxGeometry relative="1" as="geometry" />
        </mxCell>
        <mxCell id="7VTxH0GLKJcpPCkZ8lJP-89" value="walk directory recursively" style="rounded=0;whiteSpace=wrap;html=1;strokeColor=#82b366;fillColor=#d5e8d4;" parent="1" vertex="1">
          <mxGeometry x="530" y="360" width="110" height="30" as="geometry" />
        </mxCell>
        <mxCell id="xogNGDqPY7WKVePX1rSe-7" style="edgeStyle=orthogonalEdgeStyle;rounded=0;orthogonalLoop=1;jettySize=auto;html=1;entryX=0.5;entryY=0;entryDx=0;entryDy=0;strokeColor=#E07A5F;" parent="1" source="7VTxH0GLKJcpPCkZ8lJP-90" target="7VTxH0GLKJcpPCkZ8lJP-103" edge="1">
          <mxGeometry relative="1" as="geometry" />
        </mxCell>
        <mxCell id="7VTxH0GLKJcpPCkZ8lJP-90" value="put found files in a slice" style="rounded=0;whiteSpace=wrap;html=1;strokeColor=#82b366;fillColor=#d5e8d4;" parent="1" vertex="1">
          <mxGeometry x="530" y="420" width="110" height="30" as="geometry" />
        </mxCell>
        <mxCell id="7VTxH0GLKJcpPCkZ8lJP-99" style="edgeStyle=orthogonalEdgeStyle;rounded=0;orthogonalLoop=1;jettySize=auto;html=1;entryX=0;entryY=0.5;entryDx=0;entryDy=0;strokeColor=#E07A5F;fontColor=#393C56;fillColor=#F2CC8F;" parent="1" source="7VTxH0GLKJcpPCkZ8lJP-96" target="7VTxH0GLKJcpPCkZ8lJP-98" edge="1">
          <mxGeometry relative="1" as="geometry" />
        </mxCell>
        <mxCell id="7VTxH0GLKJcpPCkZ8lJP-100" value="YES" style="edgeLabel;html=1;align=center;verticalAlign=middle;resizable=0;points=[];fontColor=#393C56;" parent="7VTxH0GLKJcpPCkZ8lJP-99" vertex="1" connectable="0">
          <mxGeometry x="-0.12" y="3" relative="1" as="geometry">
            <mxPoint x="-12" y="3" as="offset" />
          </mxGeometry>
        </mxCell>
        <mxCell id="xogNGDqPY7WKVePX1rSe-9" style="edgeStyle=orthogonalEdgeStyle;rounded=0;orthogonalLoop=1;jettySize=auto;html=1;entryX=0.5;entryY=0;entryDx=0;entryDy=0;strokeColor=#E07A5F;" parent="1" source="7VTxH0GLKJcpPCkZ8lJP-96" target="7VTxH0GLKJcpPCkZ8lJP-108" edge="1">
          <mxGeometry relative="1" as="geometry" />
        </mxCell>
        <mxCell id="xogNGDqPY7WKVePX1rSe-11" value="NO" style="edgeLabel;html=1;align=center;verticalAlign=middle;resizable=0;points=[];" parent="xogNGDqPY7WKVePX1rSe-9" vertex="1" connectable="0">
          <mxGeometry x="-0.63" y="1" relative="1" as="geometry">
            <mxPoint x="-1" y="-7" as="offset" />
          </mxGeometry>
        </mxCell>
        <mxCell id="7VTxH0GLKJcpPCkZ8lJP-96" value="files were renamed?" style="rhombus;whiteSpace=wrap;html=1;strokeColor=#d6b656;fillColor=#fff2cc;" parent="1" vertex="1">
          <mxGeometry x="540" y="534.5" width="90" height="70" as="geometry" />
        </mxCell>
        <mxCell id="7VTxH0GLKJcpPCkZ8lJP-102" style="edgeStyle=orthogonalEdgeStyle;rounded=0;orthogonalLoop=1;jettySize=auto;html=1;entryX=0.5;entryY=0;entryDx=0;entryDy=0;strokeColor=#E07A5F;fontColor=#393C56;fillColor=#F2CC8F;" parent="1" source="7VTxH0GLKJcpPCkZ8lJP-98" target="7VTxH0GLKJcpPCkZ8lJP-101" edge="1">
          <mxGeometry relative="1" as="geometry" />
        </mxCell>
        <mxCell id="7VTxH0GLKJcpPCkZ8lJP-98" value="decrypt file names" style="rounded=0;whiteSpace=wrap;html=1;strokeColor=#82b366;fillColor=#d5e8d4;" parent="1" vertex="1">
          <mxGeometry x="690" y="554.5" width="100" height="30" as="geometry" />
        </mxCell>
        <mxCell id="xogNGDqPY7WKVePX1rSe-10" style="edgeStyle=orthogonalEdgeStyle;rounded=0;orthogonalLoop=1;jettySize=auto;html=1;entryX=0.5;entryY=0;entryDx=0;entryDy=0;strokeColor=#E07A5F;" parent="1" source="7VTxH0GLKJcpPCkZ8lJP-101" target="7VTxH0GLKJcpPCkZ8lJP-108" edge="1">
          <mxGeometry relative="1" as="geometry" />
        </mxCell>
        <mxCell id="7VTxH0GLKJcpPCkZ8lJP-101" value="rename files" style="rounded=0;whiteSpace=wrap;html=1;strokeColor=#82b366;fillColor=#d5e8d4;" parent="1" vertex="1">
          <mxGeometry x="692.5" y="664.5" width="95" height="30" as="geometry" />
        </mxCell>
        <mxCell id="xogNGDqPY7WKVePX1rSe-8" style="edgeStyle=orthogonalEdgeStyle;rounded=0;orthogonalLoop=1;jettySize=auto;html=1;entryX=0.5;entryY=0;entryDx=0;entryDy=0;strokeColor=#E07A5F;" parent="1" source="7VTxH0GLKJcpPCkZ8lJP-103" target="7VTxH0GLKJcpPCkZ8lJP-96" edge="1">
          <mxGeometry relative="1" as="geometry" />
        </mxCell>
        <mxCell id="7VTxH0GLKJcpPCkZ8lJP-103" value="decrypt files" style="rounded=0;whiteSpace=wrap;html=1;strokeColor=#82b366;fillColor=#d5e8d4;" parent="1" vertex="1">
          <mxGeometry x="530" y="480" width="110" height="30" as="geometry" />
        </mxCell>
        <mxCell id="7VTxH0GLKJcpPCkZ8lJP-108" value="End" style="ellipse;whiteSpace=wrap;html=1;aspect=fixed;labelBackgroundColor=none;fillColor=#dae8fc;strokeColor=#6c8ebf;" parent="1" vertex="1">
          <mxGeometry x="560" y="704.5" width="50" height="50" as="geometry" />
        </mxCell>
        <mxCell id="DnR0pofImu-BrbDnWXPT-7" style="edgeStyle=orthogonalEdgeStyle;rounded=0;orthogonalLoop=1;jettySize=auto;html=1;entryX=0;entryY=0.5;entryDx=0;entryDy=0;strokeColor=#E07A5F;" edge="1" parent="1" source="DnR0pofImu-BrbDnWXPT-2" target="DnR0pofImu-BrbDnWXPT-6">
          <mxGeometry relative="1" as="geometry" />
        </mxCell>
        <mxCell id="DnR0pofImu-BrbDnWXPT-10" value="YES" style="edgeLabel;html=1;align=center;verticalAlign=middle;resizable=0;points=[];" vertex="1" connectable="0" parent="DnR0pofImu-BrbDnWXPT-7">
          <mxGeometry x="-0.1385" relative="1" as="geometry">
            <mxPoint as="offset" />
          </mxGeometry>
        </mxCell>
        <mxCell id="DnR0pofImu-BrbDnWXPT-8" style="edgeStyle=orthogonalEdgeStyle;rounded=0;orthogonalLoop=1;jettySize=auto;html=1;entryX=0.5;entryY=0;entryDx=0;entryDy=0;strokeColor=#E07A5F;" edge="1" parent="1" source="DnR0pofImu-BrbDnWXPT-2" target="7VTxH0GLKJcpPCkZ8lJP-54">
          <mxGeometry relative="1" as="geometry" />
        </mxCell>
        <mxCell id="DnR0pofImu-BrbDnWXPT-11" value="NO" style="edgeLabel;html=1;align=center;verticalAlign=middle;resizable=0;points=[];" vertex="1" connectable="0" parent="DnR0pofImu-BrbDnWXPT-8">
          <mxGeometry x="0.176" y="2" relative="1" as="geometry">
            <mxPoint x="-2" y="-1" as="offset" />
          </mxGeometry>
        </mxCell>
        <mxCell id="DnR0pofImu-BrbDnWXPT-2" value="error?" style="rhombus;whiteSpace=wrap;html=1;fillColor=#fff2cc;strokeColor=#d6b656;" vertex="1" parent="1">
          <mxGeometry x="222.5" y="539" width="65" height="65.5" as="geometry" />
        </mxCell>
        <mxCell id="DnR0pofImu-BrbDnWXPT-9" style="edgeStyle=orthogonalEdgeStyle;rounded=0;orthogonalLoop=1;jettySize=auto;html=1;entryX=1;entryY=0.5;entryDx=0;entryDy=0;exitX=0.5;exitY=1;exitDx=0;exitDy=0;strokeColor=#E07A5F;" edge="1" parent="1" source="DnR0pofImu-BrbDnWXPT-6" target="7VTxH0GLKJcpPCkZ8lJP-77">
          <mxGeometry relative="1" as="geometry" />
        </mxCell>
        <mxCell id="DnR0pofImu-BrbDnWXPT-6" value="decrypt files back" style="rounded=0;whiteSpace=wrap;html=1;strokeColor=#b85450;fillColor=#f8cecc;" vertex="1" parent="1">
          <mxGeometry x="359" y="555" width="110" height="30" as="geometry" />
        </mxCell>
      </root>
    </mxGraphModel>
  </diagram>
</mxfile>
